# xmcd CD database file
#
# Track frame offsets:
#	150
#	18465
#	26662
#	40952
#	52693
#	65913
#	79967
#	93001
#	106762
#	117758
#	128873
#	142952
#	154698
#	168375
#	182705
#	195735
#	207965
#	221029
#	234308
#	246089
#	260043
#	275621
#	289742
#	303303
#	319331
#
# Disc length: 4438 seconds
#
# Revision: 0
# Processed by: cddbd v1.5.2PL0 Copyright (c) Steve Scherf et al.
# Submitted via: CDex 1.70beta2
#
DISCID=68115419
DTITLE=Various Artist - That Devilin' Tune (A Jazz History) Volume 1 [CD8)
DYEAR=2006
DGENRE=Jazz
TTITLE0=The Tennessee Happy Boys - Sweet Georgia Brown
TTITLE1=Ben Harney - The Wagon
TTITLE2=Charles Fulcher - My Pretty Girl
TTITLE3=Wilshire Dance Orchestra - Charleston Charlie
TTITLE4=Bessie Smith - Squeeze Me
TTITLE5=Clarence Williams' Blue 5 - Squeeze Me
TTITLE6=Charlie Creath - Grandpa's Spells
TTITLE7=Maggie Jones - Dallas Blues
TTITLE8=Hitch's Happy Harmonists - Cataract Rag
TTITLE9=Hitch's Happy Harmonists - Nightingale Rag Blues
TTITLE10=Merrit Brunies and Friar's Inn Orchestra - Sugarfoot Stomp
TTITLE11=Blossom Seely - Yes Sir That's My Baby
TTITLE12=Blue Ribbon Syncopators - Scratch
TTITLE13=Brownlee's Orchestra Of New Orleans - Dirty Rag
TTITLE14=Danny Small And His Ukulele Boys - Sweet Man
TTITLE15=Jimmie Blythe - Jimmie's Blues
TTITLE16=Jelly Roll Morton - Grandpa's Spells
TTITLE17=Ethel Waters - I Found A New Baby
TTITLE18=Cookie's Ginger Snaps - Messin' Around
TTITLE19=Charlie Straight - Deep Henderson
TTITLE20=Duke Ellington - Rainy Night
TTITLE21=California Ramblers - Stockholm Stomp
TTITLE22=Art Sims And His Creole Band - How Do You Like It Blues
TTITLE23=Williams Sisters - Sam The Accordian Man
TTITLE24=Savoy Bearcats - Sengalese Stomp
EXTD=YEAR: 2006
EXTT0=
EXTT1=
EXTT2=
EXTT3=
EXTT4=
EXTT5=
EXTT6=
EXTT7=
EXTT8=
EXTT9=
EXTT10=
EXTT11=
EXTT12=
EXTT13=
EXTT14=
EXTT15=
EXTT16=
EXTT17=
EXTT18=
EXTT19=
EXTT20=
EXTT21=
EXTT22=
EXTT23=
EXTT24=
PLAYORDER=
